<svg width="55" height="62" viewBox="0 0 55 62" fill="none" xmlns="http://www.w3.org/2000/svg">
<path d="M10.2596 61.5817L6.04924 57.4157H5.82764V61.5817H3.72247V50.3911H6.02708C8.17656 50.3911 11.0795 50.8121 11.0795 53.848C11.0795 55.9531 9.86069 56.8617 8.39816 57.2384L13.1625 61.6038H10.2596V61.5817ZM6.53675 55.5099C8.11008 55.5099 8.86351 54.9559 8.86351 53.848C8.86351 52.9173 8.19872 52.2968 6.60323 52.2968H5.82764V55.5099H6.53675Z" fill="#0A0033"/>
<path d="M13.7386 61.5595V50.3911H20.3865V52.2968H15.8438V54.7122H19.5001V56.6179H15.8438V59.6538H20.8518V61.5595H13.7386Z" fill="#0A0033"/>
<path d="M30.7353 61.5816L29.7603 59.5207H24.6857L23.7107 61.5816H21.3618L27.2119 49.9034L33.062 61.5816H30.7353ZM27.2119 54.2246L25.5499 57.7701H28.9182L27.2119 54.2246Z" fill="#0A0033"/>
<path d="M33.8819 61.5595V50.3911H35.9871V59.6538H40.6627V61.5595H33.8819Z" fill="#0A0033"/>
<path d="M42.3687 58.7229C42.9448 59.2548 43.9863 59.9417 45.2494 59.9417C46.3796 59.9417 47 59.4099 47 58.59C47 56.2189 42.0363 56.5956 42.0363 53.183C42.0363 51.1887 43.8312 50.125 45.6926 50.125C47.4211 50.125 48.6398 51.1887 48.8836 51.4324L47.8643 53.0058C47.2881 52.4296 46.4682 52.0086 45.7148 52.0086C44.9613 52.0086 44.2301 52.341 44.2301 53.0944C44.2301 55.0666 49.2381 54.6234 49.2381 58.5678C49.2381 60.2963 47.7091 61.8475 45.0943 61.8475C43.4766 61.8475 41.8811 60.8946 41.2828 60.252L42.3687 58.7229Z" fill="#0A0033"/>
<path d="M13.4732 28.1429H3.74512V35.7658H13.4732V28.1429Z" fill="#0A0033"/>
<path d="M9.72808 9.26303H0V16.8859H9.72808V9.26303Z" fill="#0A0033"/>
<path d="M55 28.1429H34.8569L43.189 35.7658H55V28.1429Z" fill="#0A0033"/>
<path d="M13.4732 7.4678V6.07174H20.4535C23.4007 6.07174 26.7912 6.33766 29.6054 7.4678H49.2167V0H3.74512V7.4678H13.4732Z" fill="#0A0033"/>
<path d="M13.4732 18.7027H3.74512V26.3256H13.4732V18.7027Z" fill="#0A0033"/>
<path d="M32.6854 9.26303C34.5025 10.8364 35.6991 13.1188 35.6991 16.4871C35.6991 16.62 35.6991 16.753 35.6991 16.8859H49.2386V9.26303H32.6854Z" fill="#0A0033"/>
<path d="M28.9847 16.5313C28.9847 13.717 26.9682 11.8334 22.1374 11.8334H19.8106V21.5394H21.9601C26.7466 21.5394 28.9847 19.8774 28.9847 16.5313Z" fill="#0A0033"/>
<path d="M39.3778 37.5826L41.9484 39.9316H33.1953L20.4757 27.3006H19.8109V39.9316H13.4732V37.5826H3.74512V45.4936H49.2167V37.5826H39.3778Z" fill="#0A0033"/>
<path d="M28.896 26.3256H49.2164V18.7027H35.5217C34.8569 22.9574 32.1756 25.1955 28.896 26.3256Z" fill="#0A0033"/>
</svg>
