<svg width="70" height="35" viewBox="0 0 70 35" fill="none" xmlns="http://www.w3.org/2000/svg">
<path d="M35.2383 21.8835V24.4898H29.3681V27.0793H35.0171V29.4826H29.3681V32.072H35.2383V34.6954H26.7307V21.9004H35.2383V21.8835Z" fill="#3D57A7"/>
<path d="M44.6986 21.8835L49.3948 34.6784H46.6043L45.6004 31.9366H41.0064L40.0025 34.6784H37.229L41.9252 21.8835H44.6986ZM41.9762 29.3303H44.6476L43.3204 25.6915L41.9762 29.3303Z" fill="#3D57A7"/>
<path d="M53.5635 21.8835V32.072H59.3997V34.6954H50.8582V21.9004H53.5635V21.8835Z" fill="#3D57A7"/>
<path d="M69.2173 22.7805L67.7541 24.896C67.1585 24.5406 66.4439 24.1852 65.5421 24.1852C64.8275 24.1852 64.0107 24.5914 64.0107 25.3699C64.0107 26.1315 65.389 26.5546 66.0696 26.7747C68.2135 27.3501 70 28.6533 70 30.8196C70 32.9352 68.2475 34.9831 65.457 34.9831C63.6024 34.9831 62.1901 34.3061 60.897 33.3414L62.2412 31.0735C63.143 31.7336 64.1979 32.3259 65.423 32.3259C66.3248 32.3259 67.3117 31.8859 67.3117 30.8366C67.3117 29.8888 65.8994 29.4487 65.0146 29.1779C63.194 28.6871 61.3223 27.587 61.3223 25.353C61.3223 23.2374 63.2451 21.5619 65.5421 21.5619C67.2776 21.5788 68.2815 22.1881 69.2173 22.7805Z" fill="#3D57A7"/>
<path d="M10.8046 0C18.2061 0 24.2465 5.38201 24.2465 12.7442C24.2465 19.3109 19.4482 24.3037 13.1527 25.3022L25.0972 35H20.2479L8.52455 25.4884H3.33495V35H0V30.3288V26.8254V23.339V19.0401V0H10.8046ZM3.33495 3.40184V12.7442V22.1881H10.8046C16.4025 22.1881 20.9115 18.3293 20.9115 12.7442C20.9115 7.15909 16.4025 3.31721 10.8046 3.31721H3.33495V3.40184Z" fill="#3D57A7"/>
</svg>
